<?xml version="1.0" encoding="UTF-8"?>
<svg id="Layer_1" data-name="Layer 1" xmlns="http://www.w3.org/2000/svg" viewBox="0 0 928.85 561.87">
  <defs>
    <style>
      .cls-1 {
        fill: #fff;
        stroke-width: 0px;
      }
    </style>
  </defs>
  <path class="cls-1" d="m921.77,35.75c4.9,9.48,7.05,18.93,7.06,28.91.01,15.33,0,30.67,0,46,0,128.17-.01,256.34,0,384.51,0,25.06-10.51,44.32-31.75,57.56-9.37,5.84-19.82,8.54-30.84,9.08-1.5.07-3,.05-4.5.05-264.86,0-529.72.03-794.59-.03-27.89,0-48.53-12.39-61.14-37.48C1.38,515.08,0,505.08,0,494.76c.06-92,.03-184.01.03-276.01,0-51,.02-102-.01-153,0-10.33,1.95-20.16,7.08-30.01,2.12,1.76,4,3.29,5.85,4.87,133.59,113.81,267.17,227.64,400.77,341.43,30.61,26.07,70.81,26.08,101.32.09,133.98-114.12,267.95-228.27,401.92-342.4,1.38-1.18,2.8-2.31,4.81-3.97Z"/>
  <path class="cls-1" d="m39.39,4.18c7.59-1.36,15.18-2.76,22.79-4.04,1.62-.27,3.33-.07,4.99-.07,264.83,0,529.65,0,794.48-.02,9.58,0,18.84,1.29,28.46,5.48-1.88,1.71-3.25,3.05-4.71,4.3-121.75,103.78-243.5,207.56-365.25,311.34-10.65,9.08-21.29,18.19-31.95,27.25-14.06,11.95-33.47,11.99-47.5.03C330.62,254.62,220.54,160.78,110.47,66.94c-22.07-18.81-44.14-37.61-66.21-56.42-1.63-1.39-3.22-2.83-4.82-4.24-.02-.7-.03-1.4-.05-2.09Z"/>
</svg>