<?xml version="1.0" encoding="UTF-8"?>
<svg id="Layer_1" data-name="Layer 1" xmlns="http://www.w3.org/2000/svg" viewBox="0 0 134.79 134.85">
  <defs>
    <style>
      .cls-1 {
        fill: #fff;
        stroke-width: 0px;
      }
    </style>
  </defs>
  <path class="cls-1" d="m34.5,0c21.94,0,43.87,0,65.81,0,1.38.22,2.77.36,4.13.67,15.27,3.43,25.06,12.68,29.25,27.77.55,1.97.74,4.03,1.1,6.05v65.81c-.08.47-.13.95-.25,1.41-.91,3.51-1.34,7.24-2.84,10.48-6.71,14.54-18.25,22.31-34.28,22.53-20,.28-40.01.08-60.01.06-7.75,0-14.93-2.1-21.25-6.6C5.44,120.52.07,110.01.03,96.85-.02,77.2,0,57.55.05,37.89c0-2.53.14-5.12.68-7.58C4.1,15.05,13.39,5.3,28.44,1.11,30.41.56,32.48.36,34.5,0ZM11.97,67.39c0,9.74,0,19.47,0,29.21,0,3.08.31,6.12,1.36,9.05,3.8,10.67,13,17.14,24.57,17.16,19.65.04,39.3.07,58.95-.05,2.93-.02,6-.43,8.77-1.36,10.78-3.63,17.2-12.96,17.22-24.61.03-19.61.06-39.21-.05-58.82-.02-2.93-.42-6-1.35-8.77-3.59-10.72-12.9-17.21-24.46-17.24-19.69-.05-39.39-.03-59.08,0-8.83,0-15.98,3.49-21.22,10.65-3.36,4.58-4.72,9.81-4.71,15.44.01,9.78,0,19.56,0,29.34Z"/>
  <path class="cls-1" d="m67.43,102.12c-19.06.03-34.77-15.67-34.75-34.74.01-19.09,15.73-34.78,34.77-34.72,19.06.06,34.62,15.61,34.69,34.68.07,19.04-15.61,34.76-34.71,34.79Zm22.73-34.71c.03-12.52-10.16-22.74-22.73-22.77-12.53-.03-22.74,10.16-22.77,22.72-.03,12.52,10.16,22.74,22.72,22.77,12.52.04,22.74-10.16,22.77-22.72Z"/>
  <path class="cls-1" d="m103.56,22.56c4.83-.02,8.84,3.98,8.8,8.77-.04,4.77-3.98,8.69-8.74,8.7-4.82.01-8.84-4-8.8-8.78.04-4.78,3.96-8.67,8.74-8.69Z"/>
</svg>