<?xml version="1.0" encoding="UTF-8"?>
<svg id="Layer_1" data-name="Layer 1" xmlns="http://www.w3.org/2000/svg" viewBox="0 0 402.76 402.46">
  <defs>
    <style>
      .cls-1 {
        fill: #fff;
        stroke-width: 0px;
      }
    </style>
  </defs>
  <path class="cls-1" d="m201.04,0c50.49,0,100.98,0,151.47,0,29.09,0,50.23,21.06,50.23,50.07.01,100.82.01,201.63,0,302.45,0,28.73-21.18,49.92-49.87,49.93-100.98,0-201.97,0-302.95,0-28.1,0-49.75-20.95-49.8-49.07C-.04,251.9-.05,150.42.15,48.94.2,20.83,21.9.01,50.07,0c50.32,0,100.65,0,150.97,0Zm133.71,334.45c.13-1.26.31-2.23.31-3.2,0-37.83.17-75.67-.1-113.5-.11-15.25-3.65-29.8-12.76-42.41-23.25-32.2-76.26-32.33-101.5-.35-1.06,1.34-2.11,2.7-3.16,4.05-.42-.14-.84-.27-1.26-.41v-21.57h-52.03v177.33h52.21c0-2.36,0-4.33,0-6.3,0-28.67-.14-57.34.11-86,.06-6.26.81-12.71,2.49-18.72,4.14-14.79,16.4-22.88,32.23-22.15,15.01.69,24.09,8.6,27.51,24.16.71,3.24,1.25,6.59,1.27,9.89.16,31,.18,62,.24,93,0,1.95,0,3.91,0,6.19h54.45ZM73.44,156.92v177.5h54.18v-177.5h-54.18Zm26.8-89.23c-18.06.01-32.3,14.56-32.26,32.95.04,17.87,14.53,32.43,32.34,32.49,17.96.06,32.62-14.7,32.6-32.81-.03-18.13-14.56-32.64-32.68-32.63Z"/>
</svg>