<?xml version="1.0" encoding="UTF-8"?>
<svg id="Layer_1" data-name="Layer 1" xmlns="http://www.w3.org/2000/svg" viewBox="0 0 1051.28 1200" height="90">
  <defs>
    <style>
      .cls-1 {
        fill: #094257;
      }

      .cls-1, .cls-2, .cls-3 {
        stroke-width: 0px;
      }

      .cls-2 {
        fill: #fff;
      }

      .cls-3 {
        fill: #01d4dd;
      }
    </style>
  </defs>
  <path class="cls-2" d="m1023.01,1104.03h-6.91c-62.66,0-125.33,0-187.99,0-23.1,0-45.84-2.76-68.12-8.97-119.79-33.41-197.59-151.1-177.17-276.51,9.71-59.64,38.27-109.14,84.29-148.36,8.18-6.97,17.1-13.08,26.16-19.94,37.99,65.8,75.5,130.76,113.23,196.11,7.97-4.59,15.55-8.95,23.42-13.48,11.24,19.4,22.22,38.34,33.36,57.57,19.8-11.43,39.06-22.55,58.52-33.79-11.2-19.45-22.13-38.41-33.2-57.64,8.1-4.73,15.64-9.13,23.43-13.69-89.62-155.22-178.9-309.86-268.39-464.87-6.32,3.56-12.16,6.85-18.22,10.26-9.22-15.93-18.08-31.24-27-46.65-23.71,13.7-46.76,27.01-70.2,40.56,9.02,15.68,17.87,31.07,26.89,46.76-5.8,3.41-11.21,6.6-17.08,10.05,36.45,63.12,72.71,125.92,108.95,188.69-91.56,60.71-146.7,144.3-157.96,253.76-11.26,109.51,26.43,202.21,104.77,280.33h-126.97v92.06c1.83.11,3.3.27,4.77.27,182.16.01,364.31,0,546.47.1,4.27,0,5.26-1.38,5.24-5.42-.16-27.33-.08-54.66-.09-81.99,0-1.48-.13-2.95-.23-5.22Zm-197.96-75.16c75.65-43.68,150.78-87.06,226.23-130.63-7.58-13.13-14.8-25.63-22.24-38.52-75.57,43.63-150.82,87.07-226.25,130.62,7.55,13.06,14.78,25.58,22.26,38.52Z"/>
  <path class="cls-1" d="m394.59,0c11.28.71,22.57,1.33,33.85,2.13,32.14,2.28,63.86,6.68,94.39,17.66,42.39,15.24,73.46,43.48,95.54,82.25,18.69,32.83,30.14,68.4,39.88,104.63.78,2.88.2,4.91-2.25,6.92-7.2,5.93-14.23,12.08-21.18,18.3-2.05,1.83-3.53,2.07-6.05.61-20.37-11.83-40.86-11.5-61.18.12-22.7,12.97-45.32,26.06-67.93,39.19-31.06,18.04-40.49,53.37-22.44,84.38,2.38,4.08,3.38,7.72,2.22,12.56-3.75,15.65-.6,30.3,7.43,44.14,26.22,45.23,52.33,90.52,78.47,135.79.91,1.57,1.75,3.18,2.74,4.99-70.57,60.93-116.18,136.58-133.75,228.26-17.5,91.32-4.51,178.51,38.48,261.52-5.54.44-10.79.54-15.94,1.32-28.71,4.34-50.26,28.87-50.42,57.73-.17,32.5.06,64.99.12,97.49H122.57c2.87-22.76,4.66-45.73,8.88-68.23,5.14-27.37,18.29-51.79,33.81-74.56,28.14-41.27,57.18-81.93,85.75-122.9,1.66-2.38,3.04-5.19,3.67-8,4.24-18.82,8.21-37.7,12.32-56.56,1.31-5.99,1-13.66,4.66-17.43,3.67-3.77,11.31-3.91,17.33-5.08,3.8-.74,5.23-2.55,5.55-6.22,2.46-28.57,1.71-56.89-5.9-84.75-9.75-35.68-34.85-57.38-71.63-62.57-24.34-3.44-48.54-1.07-72.79.65-15.94,1.13-31.89,2.94-47.79-.46-18.79-4.02-35.2-22.14-34.95-39.82.11-7.7,1.88-15.5,3.79-23.03,2.43-9.54,3.26-18.97,1.37-28.65-1.82-9.29-6.01-16.78-14.81-21.29-6.5-3.34-7.4-5.7-6.29-12.9.76-4.87,3.77-7.96,7.76-10.44,4.37-2.71,4.55-4.08.57-7.27-3.76-3.02-7.88-5.58-11.73-8.48-3.94-2.97-5.05-6.45-2.72-11.3,4.81-10.05,9.1-20.35,13.73-30.49,2.12-4.65.9-8.25-3.28-10.63-3.88-2.21-7.99-4.09-12.17-5.67-8.7-3.3-17.71-5.87-26.24-9.55-12.82-5.53-14.5-10.64-6.97-22.11,19.36-29.52,39.1-58.79,58.62-88.21,3.49-5.26,6.85-10.64,9.87-16.18,6.51-11.96,6.6-24.17.61-36.4-1.39-2.84-2.57-5.83-4.3-8.44-3.52-5.29-3.49-10.73-.86-16.12,3.79-7.77,8.19-15.24,11.85-23.06,2.51-5.36,4.96-10.95,6.14-16.7,3.46-16.77,5.58-33.83,9.49-50.48,6.11-26.01,14.24-51.6,29.95-73.52,7.22-10.08,10.16-18.86,5.31-30.55-3.31-7.97-.9-15.49,4.94-22.14,10.05-11.45,22.01-20.33,35.34-27.4C216.15,19.34,264.73,9.34,314.35,3.15,324.73,1.85,335.17,1.04,345.58,0,361.92,0,378.25,0,394.59,0Z"/>
  <path class="cls-3" d="m1023.01,1104.03c.1,2.27.23,3.75.23,5.22.01,27.33-.07,54.66.09,81.99.02,4.04-.97,5.42-5.24,5.42-182.16-.1-364.31-.09-546.47-.1-1.47,0-2.94-.17-4.77-.27v-92.06h126.97c-78.34-78.13-116.03-170.82-104.77-280.33,11.25-109.46,66.4-193.05,157.96-253.76-36.25-62.77-72.51-125.57-108.95-188.69,5.87-3.46,11.28-6.64,17.08-10.05-9.03-15.7-17.87-31.08-26.89-46.76,23.45-13.55,46.49-26.86,70.2-40.56,8.92,15.41,17.78,30.72,27,46.65,6.05-3.41,11.9-6.7,18.22-10.26,89.49,155,178.77,309.64,268.39,464.87-7.8,4.55-15.33,8.96-23.43,13.69,11.08,19.23,22,38.19,33.2,57.64-19.47,11.24-38.72,22.36-58.52,33.79-11.15-19.23-22.12-38.17-33.36-57.57-7.87,4.53-15.45,8.89-23.42,13.48-37.73-65.35-75.24-130.31-113.23-196.11-9.05,6.86-17.97,12.97-26.16,19.94-46.03,39.22-74.58,88.72-84.29,148.36-20.42,125.41,57.37,243.1,177.17,276.51,22.28,6.21,45.02,8.96,68.12,8.97,62.66.01,125.33,0,187.99,0h6.91Z"/>
  <path class="cls-3" d="m825.05,1028.86c-7.48-12.95-14.71-25.46-22.26-38.52,75.43-43.55,150.69-86.99,226.25-130.62,7.44,12.89,14.66,25.39,22.24,38.52-75.45,43.57-150.58,86.95-226.23,130.63Z"/>
</svg>