<?xml version="1.0" encoding="UTF-8"?>
<svg id="Layer_1" data-name="Layer 1" xmlns="http://www.w3.org/2000/svg" viewBox="0 0 630.13 443.96">
  <defs>
    <style>
      .cls-1 {
        fill: #fff;
        stroke-width: 0px;
      }
    </style>
  </defs>
  <path class="cls-1" d="m348.18,120.94h-6.7c-103.67,0-207.35,0-311.02,0-1.17,0-2.35.11-3.5-.02-16.44-1.92-24.92,8.96-26.51,23.24-.33,2.97-.42,5.99-.43,8.98C0,200.99,0,248.84,0,296.69c0,2.17.01,4.34.19,6.5,1.15,13.96,9.69,22.21,23.62,22.85,1.83.08,3.67.02,5.5.02,101.67,0,203.35,0,305.02,0q7.02,0,7.02,6.98c0,26.34-.2,52.69.14,79.02.09,6.88.95,14.07,3.13,20.54,3.31,9.8,12.53,13.67,22.28,9.96,4.9-1.86,9.64-4.61,13.83-7.79,37.57-28.5,75.19-56.93,112.41-85.87,41.3-32.12,82.22-64.72,123.18-97.27,3.71-2.95,7.1-6.69,9.59-10.72,6.54-10.6,5.37-22.25-2.9-32.52-2.59-3.21-5.71-6.07-8.9-8.71-73.91-61.26-147.85-122.48-221.83-183.65-5.62-4.65-11.24-9.5-17.54-13.07-11.99-6.78-22.66-1.59-25.54,11.92-.79,3.71-.98,7.6-.99,11.41-.08,29.34-.04,58.69-.04,88.03v6.61Z"/>
</svg>