<?xml version="1.0" encoding="UTF-8"?>
<svg id="Layer_1" data-name="Layer 1" xmlns="http://www.w3.org/2000/svg" viewBox="0 0 393.14 332.51">
  <defs>
    <style>
      .cls-1 {
        fill: #fefefe;
      }

      .cls-1, .cls-2, .cls-3, .cls-4, .cls-5, .cls-6 {
        stroke-width: 0px;
      }

      .cls-2 {
        fill: #094257;
      }

      .cls-3 {
        fill: #fec45f;
      }

      .cls-4 {
        fill: #d6d6d5;
      }

      .cls-5 {
        fill: #b5b5b6;
      }

      .cls-6 {
        fill: #01d4dd;
      }
    </style>
  </defs>
  <path class="cls-6" d="m327.55,120.6c8.63-.16,16.28-2.51,21.76-9.71.1,3.85.21,7.71.31,11.56-1.73,1.37-.02,2.69.05,4.03-.06,1.66-.17,3.32-.17,4.98,0,47.58-.08,95.16.11,142.74.02,4.93-1.01,6.39-6.21,6.37-46.08-.2-92.16-.08-138.24-.05-1.24-2.54-3.47-2.61-5.91-2.61-8.62,0-17.25-.16-25.87-.26.13-.84.26-1.69.39-2.53,1.99-.07,3.99-.2,5.98-.2,32.81-.01,65.61,0,98.42-.01,6.48,0,8.33-1.81,8.34-8.25.03-21.15.04-42.3,0-63.45-.03-14.15-.14-28.3-.22-42.45,0-2.35,0-4.7,0-7.05.04-7.82.07-15.64.11-23.46.04-3.33.11-6.66.11-9.99,0-7.53-1.87-9.36-9.48-9.36-58.64,0-117.28,0-175.92,0-12.81,0-25.63.07-38.44-.03-4.64-.04-7.48,2-7.69,6.58-.2,4.29-.62,8.65.36,12.93-.11.48-.31.97-.31,1.45-.04,45.41-.08,90.82-.04,136.24,0,4.87,2.18,6.76,7.18,6.84,7.48.12,14.96.16,22.44.23.99,4.1-.46,5.54-4.79,5.4-9.82-.3-19.65-.2-29.47-.03-3.37.06-4.64-.84-4.63-4.46.1-56.12.1-112.23,0-168.35,0-3.31,1-4.21,4.25-4.18,16.82.16,33.64.09,50.45.1,1.85,4.67,3.1.8,4.55-.32,2.32.1,4.64.28,6.96.28,57.02.02,114.05.02,171.07,0,6.48,0,12.96-.1,19.44-.16,5.09,10.53,12.85,17.14,25.11,17.19Z"/>
  <path class="cls-2" d="m173.77,275.11c-.13.84-.26,1.69-.39,2.53-16.31.04-32.62.09-48.93.13-7.04.02-7.25.21-7.79,7.13-9.49-.05-18.97-.04-28.46-.18-2.22-.03-3.53.55-3.55,2.94-17.32,0-34.64-.01-51.96-.02-.11-1.82-.3-3.65-.3-5.47-.02-60.31-.01-120.61-.01-180.92,0-8.27,1.45-9.99,9.34-11.17,1.06.47,2.12.38,3.16-.06,20.29.11,40.58.17,60.87.39,2.2.02,5.04-1.52,6.3,2.45.55,1.73,2.01-.39,2.89-1.18,3.41,2.9,6.89,5.68,11.25,7.09,12.12,3.92,22-.04,30.58-8.63,22.25,0,44.49,0,66.74,0,1.74.56,3.48.56,5.22,0,23.98.07,47.96.14,71.94.21-.08,4.44.49,8.8,1.77,13.06-6.48.06-12.96.16-19.44.16-57.02.01-114.05.01-171.07,0-2.32,0-4.64-.18-6.96-.27.3-1.58,3.71-2.53,1.64-4.27-2.45-2.08-2.81,1.55-4.19,2.47-.79.52-1.34,1.4-2,2.12-16.82,0-33.64.06-50.45-.1-3.25-.03-4.26.88-4.25,4.18.09,56.12.09,112.23,0,168.35,0,3.62,1.26,4.52,4.63,4.46,9.82-.17,19.65-.26,29.47.03,4.33.13,5.78-1.3,4.79-5.41.08-.62.15-1.25.23-1.87,14.61-.09,29.22-.26,43.84-.25,14.94,0,29.89.17,44.83.26.09.62.19,1.24.28,1.86Z"/>
  <path class="cls-2" d="m223.68,88.78c-20.46-1.7-36.26-15.73-39.76-35.29-3.4-19.01,6.97-38.11,25.2-46.41,20.19-9.19,45.01.02,55.04,20.41,10.02,20.37,2.06,45.61-17.54,55.96-5.68,3-11.63,4.82-18.01,5.34-1.64,0-3.28,0-4.93,0Zm3.53-65.71c-2.87-.62-5.64.01-8.35.85-9.5,2.94-16.26,12.21-16.28,22.26-.02,10.29,6.81,19.47,16.69,22.43,9.84,2.94,20.25-.69,25.99-9.06,5.83-8.51,5.6-19.07-.58-26.88-4.17-6.21-10.11-9.21-17.47-9.59Z"/>
  <path class="cls-2" d="m205.16,280.51c46.08-.03,92.16-.15,138.24.05,5.2.02,6.23-1.44,6.21-6.37-.19-47.58-.12-95.16-.11-142.74,0-1.66.11-3.32.17-4.98.7,1.1,1.39,2.2,2.11,3.29.55.82,1.3.96,2.11.44.58-.38,1.05-1.08.59-1.66-1.61-2.04-1.18-5.72-4.86-6.09-.1-3.85-.21-7.71-.31-11.56,3.63-5.53,6.14-11.43,5.74-18.22-.15-2.5,1.33-2.37,2.84-1.79,3.07,1.17,4.95,3.44,4.96,6.8.05,17.48.47,34.99-.25,52.44-.22,5.24.38,10.35.36,15.52-.15,38.96-.17,77.93.04,116.89.02,4.56-1.28,5.39-5.55,5.38-48.62-.16-97.24-.1-145.87-.09-2,0-3.99.08-5.99.12-.15-2.47-.29-4.95-.44-7.42Zm152.43-143.42c-.38.24-1.06.47-1.41.94-.56.77,2.09,7.28,3.01,7.38.55.06,1.34-.25,1.7-.67.82-.95-1.86-7.43-3.3-7.66Z"/>
  <path class="cls-5" d="m205.74,304.66c-.06,6.97-.09,13.94-.18,20.91-.07,5.56-1.29,6.9-6.64,6.91-25.23.04-50.47.04-75.7,0-5.5,0-6.61-1.26-6.67-6.78-.04-3.65-.09-7.3-.14-10.95.15-4.07.3-8.13.45-12.2,20.21.03,40.43.11,60.64.09,9.27,0,18.54-.2,27.81-.3.14.78.28,1.56.43,2.33Zm-72.5,24.05c9.09,0,10.04-1.11,8.73-9.88-.22-1.44-.58-2.87-2.13-2.93-4.31-.16-8.63-.1-12.95-.03-.87.02-1.33.84-1.69,1.64-2.85,6.27.24,11.2,7.05,11.2.33,0,.67,0,1,0Zm10.86-21.1c-5.3,0-10.6-.04-15.9.02-1.54.02-3.65-.51-3.54,2.17.1,2.24,1.93,1.89,3.34,1.89,10.43.03,20.87.03,31.3,0,1.42,0,3.23.32,3.28-1.95.06-2.69-2.07-2.09-3.58-2.11-4.97-.07-9.94-.03-14.9-.02Zm38.17,4.09c3.48,0,6.96.01,10.43,0,1.33,0,2.76.04,2.89-1.87.13-1.85-1.04-2.2-2.53-2.2-6.96,0-13.91,0-20.87,0-1.26,0-2.28.25-2.37,1.84-.1,1.85,1,2.23,2.5,2.23,3.31,0,6.63,0,9.94,0Z"/>
  <path class="cls-6" d="m156.77,90.14c-8.58,8.59-18.46,12.55-30.58,8.63-4.36-1.41-7.84-4.18-11.25-7.09-9.38-13.68-9.12-27.04.73-37.24,9.23-9.56,24.27-11.03,35.13-3.44,10.83,7.58,14.56,22.26,8.68,34.18-.59,1.19-1.24,2.35-1.86,3.52-.52.22-.83.53-.46,1.12-.06.19-.18.3-.38.31Zm-26.04-15.74c.65-.08,1.31-.15,1.96-.23-1.64,2.8-3.27,5.6-5,8.55,2.71.9,4.33.37,5.38-1.81,1.15-2.37,2.4-4.7,3.61-7.05.39-.07.78-.14,1.18-.21-.06,1.48-.24,2.96-.17,4.44.15,3.23,1.71,5.41,5.12,5.46,3.47.05,4.87-2.27,5.18-5.42.5-5.24-1.54-6.96-9.03-7.51.93-1.95,1.84-3.83,2.74-5.72.58-.45,1.21-.9-.04-1.3-2.39-.82-3.54.5-4.69,2.38-1.42,2.32-1.96,5.24-4.45,6.86.03-1.81.33-3.67.02-5.42-.47-2.69-2.14-4.52-5.09-4.42-3.14.11-4.69,1.95-4.95,5.06-.46,5.68,1.27,7.04,8.22,6.35Z"/>
  <path class="cls-2" d="m65.98,43.37q-2.73-13.74,8.44-21.18c10.51-6.98,21.08-13.86,31.52-20.96,2.61-1.77,3.97-1.84,5.77,1.1,4.16,6.78,8.65,13.37,13.19,19.9,1.36,1.95,1.32,2.91-.73,4.25-13.47,8.82-26.89,17.72-40.26,26.69-1.77,1.18-3.17,1.27-4.96.2-3.13-1.86-6.37-3.53-9.56-5.28,1.32-2.22,3.51-3.39,5.67-4.55,1.78-.96,3.18-2.22,1.66-4.07-1.12-1.36-2.89-1.66-4.63-.18-1.86,1.58-3.68,3.3-6.11,4.07Zm41.7-18.6c1-.8,2.48.21,3.42-.97,1.04-1.3,3.98-1.29,3.26-3.65-.74-2.42-2.88.71-4.2-.51-.26-1.46,2.67-1.85,1.25-3.69-1.15-1.48-2.34.76-3.54.02-.4-1.55,3.86-2.55.74-4.1-1.71-.85-3.06,1.46-4.57,2.32-1.78,1.01-.49,2.14,0,3.3,1.07,2.55,4.28,4.03,3.72,7.39-.72-.28-1.82-1.01-2.11-.77-3.1,2.6-4.2.11-5.5-2-.43-.7-.92-1.36-1.38-2.04-.58-.85-1.17-1.57-2.36-.87-1.28.75-1.31,1.6-.62,2.83,1.27,2.25,3.44,3.98,3.88,6.71-3.27,0-4.6-3.05-6.99-4.46-1.21-.71-2.17-1.23-3.55-.36-1.46.93-1.9,1.98-1.48,3.68.51,2.03.75,4.13,1.1,6.2-2.13-.83-4.39-1.02-6.76-.92.42-1.72,3.21-1.3,2.49-3.44-.23-.68-.85-1.06-1.57-.89-2.42.59-4.54,1.84-4.7,4.49-.13,2.27,1.42,3.59,3.82,3.66,1.01.03,2.16-.64,3,.25-.34,1.94-3.11.96-2.99,2.95.03.51.73,1.31,1.22,1.4,1.83.34,3.03-.95,4.31-2,1.91-1.58.97-3.68,1.08-5.59,1.57.31,1.44,5.3,3.55,2.21,1.87-2.73,3.1-4.25,6.53-4.11,1.8.07.39-2.1.84-3.16,4.3,2.06,6.13-1.06,8.1-3.88Z"/>
  <path class="cls-4" d="m205.74,304.66c-.14-.78-.28-1.56-.43-2.33.09-1.9.18-3.79.27-5.69h187.56c-3.5,5.9-8.36,7.99-14.5,7.99-39.81-.03-79.62-.02-119.43-.01-17.82,0-35.65.03-53.47.05Z"/>
  <path class="cls-4" d="m32.69,287.64c17.32,0,34.64.01,51.96.02.01,5.66.03,11.32.04,16.98-22.77,0-45.54,0-68.3-.03-8.03-.01-13.39-4.03-15.82-11.13-1.2-3.5-.65-4.7,3.27-4.83,6.99-.23,13.89.74,20.83,1.06,2.97.14,5.58-.46,8.02-2.07Z"/>
  <path class="cls-5" d="m205.16,280.51c.15,2.47.29,4.95.44,7.42-.31.73-.62,1.46-.93,2.19-27.17.06-54.34.11-81.51.2-2.14,0-4.27.29-6.41.45-.21-.26-.33-.56-.34-.89l.25-4.99c.54-6.92.75-7.11,7.79-7.13,16.31-.04,32.62-.08,48.93-.13,8.62.1,17.24.25,25.87.26,2.44,0,4.67.08,5.91,2.61Z"/>
  <path class="cls-2" d="m116.75,290.78c2.14-.16,4.27-.44,6.41-.45,27.17-.09,54.34-.14,81.51-.2,1.3,2.03.06,4.42.91,6.51-.09,1.9-.18,3.79-.27,5.69-9.27.11-18.54.29-27.81.3-20.21.02-40.43-.05-60.64-.09-.09-2.72-.19-5.45-.28-8.17.06-1.2.11-2.39.17-3.59Z"/>
  <path class="cls-2" d="m116.58,294.37c.09,2.72.18,5.45.28,8.17-.15,4.07-.3,8.13-.45,12.2-7.96-.02-15.92-.02-23.87-.05-7.22-.03-7.65-.47-7.74-7.57-.01-.83-.07-1.65-.11-2.48-.01-5.66-.03-11.32-.04-16.98.02-2.39,1.33-2.97,3.55-2.94,9.48.14,18.97.13,28.46.18-.08,1.66-.17,3.33-.25,4.99-6.97-.04-13.95-.07-20.92-.12-1.81-.01-3.45.19-3.37,2.54.06,1.94,1.36,2.4,3.08,2.37,7.13-.13,14.26-.21,21.4-.31Z"/>
  <path class="cls-4" d="m302.44,103.4c-1.28-4.26-1.84-8.61-1.77-13.06,2.86-8.22,6.31-16,14.8-20.06.59-.28,1.04-.84,1.63-1.1,7.81-3.45,10.43-1.78,10.41,6.62,0,1.32-.02,2.64-.03,3.97-4.3.08-8.6.19-12.9.23-1.93.02-3.73.02-3.71,2.72.03,5.96-.1,11.93.05,17.89.09,3.63,1.8,2.85,3.61,1-.31,3.32.8,5.89,4.47,5.57,3.68-.32,4.25-3.11,3.46-6.29,1.27,3.29,4.49,1.94,6.76,2.86-3.08,3.05-1.29,6.91-1.67,10.39-.23,2.12-.03,4.3-.02,6.45-12.26-.05-20.02-6.67-25.11-17.19Z"/>
  <path class="cls-6" d="m314.54,101.62c-1.82,1.85-3.52,2.63-3.61-1-.15-5.96-.01-11.93-.05-17.89-.02-2.7,1.78-2.7,3.71-2.72,4.3-.04,8.6-.15,12.9-.23.66.04,1.33.22,1.96.11,4.77-.82,7.17.82,6.34,5.95-1.08,4.25,1.56,9-1.73,12.96-2.09.04-2.21,1.85-2.86,3.18-.21,1.08-.59,1.99-1.97,1.79-2.27-.92-5.49.43-6.76-2.86-2.88-2.33-5.68-3.87-7.93.72Z"/>
  <path class="cls-2" d="m65.98,43.37c2.43-.76,4.26-2.48,6.11-4.07,1.74-1.48,3.51-1.18,4.63.18,1.52,1.85.13,3.11-1.66,4.07-2.15,1.16-4.35,2.33-5.67,4.55-14.18,6.49-20.55,18.61-23.62,33.01-.62,2.9-.62,5.93-.9,8.91-1.05.44-2.1.53-3.16.06.8-16.84,6.95-31.12,20.39-41.74,1.79-1.41,1.87-3.89,3.88-4.97Z"/>
  <path class="cls-2" d="m331.2,101.97c.65-1.33.77-3.14,2.86-3.18,2.49.52,2.55-.93,2.53-2.83-.04-3.28.19-6.57.31-9.85,1.79,0,3.59-.01,5.38-.02.45.15.89.3,1.34.45,3.59,2.72,6.88,14.24,3.85,16.98-3.1,2.8-8.32,2.1-12.51,3.66-2.35.87-3.99-2.31-3.76-5.21Zm13.51-9.52c.08-2.05-.89-3.01-2.96-3.05-1.74-.03-2.31.75-2.26,2.4.05,1.6.06,3,2.28,2.92,1.59-.06,3.08-.05,2.93-2.27Z"/>
  <path class="cls-5" d="m336.9,86.1c-.12,3.28-.35,6.57-.31,9.85.02,1.9-.04,3.35-2.53,2.83,3.29-3.96.65-8.71,1.73-12.96.37.09.74.18,1.11.27Z"/>
  <path class="cls-4" d="m223.68,88.78c1.64,0,3.29,0,4.93,0,.04.45.08.9.12,1.35-1.74.56-3.48.56-5.22,0,.06-.45.11-.9.17-1.36Z"/>
  <path class="cls-4" d="m157.15,89.82c-.37-.59-.05-.9.46-1.12-.15.37-.31.75-.46,1.12Z"/>
  <path class="cls-5" d="m343.62,86.54c-.45-.15-.89-.3-1.34-.45.6-.29,1.02-.07,1.34.45Z"/>
  <path class="cls-4" d="m84.82,273.25c-.08.62-.15,1.24-.23,1.87-7.48-.07-14.96-.11-22.44-.23-5-.08-7.18-1.97-7.18-6.84-.04-45.41,0-90.82.04-136.24,0-.48.2-.97.31-1.45,8.32,0,16.65,0,24.98-.01,1.79,0,3.64.35,4.65-1.92.52-1.17.75-3.46,2.84-2.67,2.57.97-.54,2.86.55,4.59,4.58,0,9.37,0,14.17,0,61.29-.04,122.58-.08,183.87-.12-.04,7.82-.07,15.64-.11,23.46-2.44.49-6.09-1.53-6.65,2.93-.76,6.01,3.96,3.5,6.66,4.12.08,14.15.19,28.3.22,42.45.04,21.15.03,42.3,0,63.45,0,6.44-1.86,8.25-8.34,8.25-32.81.01-65.61,0-98.42.01-1.99,0-3.99.13-5.98.2-.09-.62-.19-1.24-.28-1.86.08-2.87.16-5.73.24-8.59,31.45,0,62.9-.02,94.35.04,2.89,0,4.75-.29,4.62-3.95-.11-2.91-.83-4.11-3.97-4.11-38.61.08-77.21.06-115.82.03-2.52,0-4.28.61-4.28,3.52-.98.11-1.97.28-2.95.3q-7.19.18-7.2-6.92c-.02-8.94-.05-17.89-.08-26.83,3.75-.35,7.5-.7,11.25-1.05.64,2.7-2.21,7.12,3.9,7.03,14.13-.21,28.25-.18,42.38-.25,1.26.7,2.52,1.39,3.78,2.09-1.38,1.81-3.36,1.08-5.09,1.09-13.45.06-26.91.07-40.36,0-2.75-.01-4.71.05-4.75,3.82-.04,3.87,1.78,4.23,4.88,4.21,20.1-.09,40.19-.05,60.29-.06,1.28.74,2.57,1.48,3.85,2.22-1.59,1.39-3.51.75-5.28.76-19.66.05-39.32.05-58.97,0-2.75,0-4.8.03-4.76,3.83.04,3.34,1.2,4.23,4.39,4.22,38.15-.08,76.3-.09,114.45,0,3.22,0,4.38-.92,4.36-4.24-.02-3.26-1.44-3.85-4.26-3.82-11.83.1-23.66.07-35.48.01-1.76,0-3.69.65-5.26-.79.7-.7,1.39-1.41,2.09-2.11,12.6-.02,25.2-.07,37.8-.04,2.79,0,5.14.27,5.14-3.91,0-3.96-1.97-4.12-4.96-4.11-11.94.06-23.87-.03-35.81-.06-.23-.96-.47-1.92-.7-2.88,12.32,0,24.63-.05,36.95,0,2.56,0,4.49-.03,4.48-3.56,0-3.53-1.96-3.55-4.5-3.54-14.48.05-28.96.01-43.44.04-1.44,0-3.05-.46-4.14,1.03-2.65-1.04-5.3-2.08-7.94-3.12,1.5-1.59,3.45-.88,5.19-.89,16.96-.05,33.92-.1,50.88.02,3.15.02,4-1.19,3.93-4.12-.06-2.6-.58-3.96-3.6-3.94-25.27.15-50.54.19-75.8.26-1.87-.76-3.74-1.53-5.62-2.29,1.48-1.65,3.44-.92,5.18-.92,24.99-.05,49.97-.13,74.96.07,4.22.03,5.11-1.54,4.85-5.24-.28-3.94-3.12-2.77-5.16-2.78-32.15-.07-64.3-.07-96.45-.08,1.16-4.6.78-9.28.75-13.94,3.59.11,2.81-2.54,2.76-4.56-.09-3.62-2.95-2.19-4.84-2.49l-1.09-1.96c.53-.33,1.08-.97,1.6-.95,3.97.21,4.59-2.09,4.4-5.35-.22-3.88-3.09-2.57-5.11-2.7-2.61-.17-5.25-.03-7.87-.02-.97-.73-1.94-1.45-2.91-2.18,3.81-1.8,7.84-.36,11.75-.84,1.39-.17,3.27.62,3.86-1.34.52-1.74.74-3.73-.31-5.33-1.33-2.04-3.63-1.25-5.54-1.26-30.64-.08-61.27-.12-91.91-.16.07-.99.14-1.98.21-2.97,30.97.04,61.94.06,92.91.14,2.54,0,4.06-.41,4.06-3.49,0-2.95-1.26-3.63-3.92-3.63-33.8.06-67.6.06-101.4,0-2.74,0-3.88.82-3.84,3.7.04,2.66,1.11,3.57,3.61,3.41,1.82-.12,3.66-.04,5.49-.05-.35,1.01-.7,2.02-1.06,3.03-.66,0-1.33-.05-1.99,0-2.69.23-6.09-1.29-6.12,3.92-.02,5.1,3.21,4.01,6.01,4.02,15.62.04,31.23,0,46.85.05,1.75,0,3.68-.66,5.22.85-.95.72-1.91,1.44-2.86,2.16-15.49,0-30.98.02-46.46.03-.8-.02-1.6-.03-2.4-.05-2.5.45-6.17-1.73-6.33,3.56-.13,4.08,1.7,4.81,5.03,4.36,1.07,1.27,2.14,1.33,3.21,0,11.62,0,23.25-.01,34.87.05,1.73,0,3.71-.68,5.1,1.09-.36.64-.71,1.28-1.07,1.92-14.27-.01-28.55-.02-42.82-.06-2.29,0-4.22-.08-4.29,3.22-.06,3.17,1.17,4.23,4.11,3.82l.02,7.06c-3.43-.4-4.03,1.41-4.01,4.45.12,17.29.06,34.57.06,51.86q0,11.49,11.33,11.49,8.62,0,8.74,8.71Zm-5.16-132.57c-3.39-2.07-7.12-.47-10.66-.96-3.07-.42-4.44.62-4.47,4.05-.02,3.64,1.74,4.1,4.63,3.93,2.48-.14,4.98-.03,7.47-.03,1.25,1.69,2.52.74,3.79.04.66-.01,1.33-.03,1.99-.03,28.75,0,57.5-.02,86.26.01,2.78,0,5.6.19,5.82-3.61.23-3.91-2.25-4.43-5.52-4.42-27.59.08-55.18.04-82.76.07-1.59,0-3.38-.53-4.63,1.06-.64-.04-1.28-.07-1.92-.11Zm146.45-2.94c-13.99,0-27.98.08-41.97-.06-3.23-.03-4.78.55-4.73,4.32.2,14.82.15,29.64.03,44.47-.03,3.11.72,4.43,4.15,4.41,28.31-.11,56.62-.11,84.94,0,3.38.01,4.2-1.2,4.17-4.36-.13-14.65-.22-29.31.05-43.96.08-4.18-1.43-4.94-5.16-4.89-13.82.19-27.65.07-41.47.07Z"/>
  <path class="cls-2" d="m286.39,130.23c-61.29.04-122.58.08-183.87.12-4.79,0-9.59,0-14.17,0-1.09-1.72,2.02-3.62-.55-4.59-2.09-.79-2.32,1.5-2.84,2.67-1.02,2.26-2.86,1.91-4.65,1.92-8.33.01-16.66.01-24.98.01-.97-4.28-.55-8.64-.35-12.93.21-4.58,3.05-6.62,7.69-6.58,12.81.1,25.63.03,38.44.03,58.64,0,117.28,0,175.92,0,7.62,0,9.48,1.83,9.48,9.36,0,3.33-.07,6.66-.11,9.99Zm-12.08-10.7c.61-1.57,3.37.13,3.5-2.32-1.94-1.03-3.35-.43-4.44,1.29-1.33,1.47-1.33,2.94,0,4.41,1.47,2.05,3.08,2.34,5.94.41-2.31-.64-3.99-.06-4.99-1.4,0-.8,0-1.59-.01-2.39Zm-178.14-2.98c-.64-2,2.02-2.95.45-4.55-.54-.55-1.38-.62-1.73-.06-1.93,3.02-5.15,5.64-4.32,9.71.86,4.2,4.49,3.19,7.34,3.19,54.45.03,108.9.02,163.34.02.67,0,1.33-.03,2,.01,2.92.18,5.07-.91,5.15-4.03.08-3.47-2.29-4.45-5.37-4.31-1.16.05-2.33,0-3.5,0-52.62,0-105.23,0-157.85,0-1.82,0-3.65,0-5.52,0Zm-20.55,3.94c-.17-1.37-1.12-2.18-2.59-2.11-1.22.05-2.15.78-2.23,2.14-.09,1.6.87,2.51,2.31,2.55,1.44.04,2.42-.81,2.5-2.58Zm-10.88,2.12c.64-.25,1.57-.73,1.57-1.81,0-1.33-.95-1.98-2.24-1.94-1.08.04-1.89.69-1.91,1.76-.03,1.37.97,1.89,2.58,1.98Zm18.74-2.04c-.1-1.19-.78-1.72-1.93-1.66-1.18.06-1.72.79-1.66,1.92.06,1.18.79,1.71,1.92,1.66,1.19-.05,1.68-.78,1.67-1.92Z"/>
  <path class="cls-5" d="m286.29,160.75c-2.7-.62-7.41,1.89-6.66-4.12.56-4.46,4.21-2.44,6.65-2.93,0,2.35,0,4.7,0,7.05Z"/>
  <path class="cls-4" d="m100.41,103.59c.66-.72,1.21-1.59,2-2.12,1.39-.92,1.74-4.55,4.19-2.47,2.06,1.75-1.35,2.7-1.64,4.27-1.45,1.11-2.7,4.99-4.55.31Z"/>
  <path class="cls-4" d="m349.62,122.44c3.67.38,3.25,4.05,4.86,6.09.46.58,0,1.28-.59,1.66-.81.53-1.56.39-2.11-.44-.72-1.08-1.41-2.19-2.11-3.29-.07-1.34-1.78-2.66-.05-4.03Z"/>
  <path class="cls-2" d="m138.39,226.74c.03,8.94.06,17.89.08,26.83q.01,7.09,7.2,6.92c.99-.02,1.97-.2,2.95-.3,6.47.11,12.93.32,19.4.28,3.11-.02,5.15.96,5.71,4.19-.08,2.86-.16,5.73-.24,8.59-14.94-.09-29.89-.25-44.83-.26-14.61,0-29.22.16-43.84.25q-.12-8.71-8.74-8.71-11.33,0-11.33-11.49c0-17.29.06-34.58-.06-51.86-.02-3.04.58-4.85,4.01-4.45.98,0,1.96,0,2.94,0,12.55.03,25.1.06,37.65.09,2.45,17.54,11.45,26.8,29.09,29.93Zm-39.47-1.37c-1.69-1.69-3.72-2.67-6.1-2.94-4.8-.54-9.26,2.1-11.1,6.57-1.69,4.11-.38,9.15,3.15,12.1,4.03,3.37,8.67,3.17,14-.62,6.7,4.28,12.5,3.82,16.26-1.28,3.03-4.11,2.64-9.97-.9-13.7-3.67-3.87-11.06-4.36-15.31-.12Z"/>
  <path class="cls-6" d="m244.68,32.67c6.18,7.81,6.41,18.38.58,26.88-5.74,8.37-16.16,12-25.99,9.06-9.88-2.96-16.71-12.13-16.69-22.43.02-10.05,6.78-19.32,16.28-22.26,2.71-.84,5.48-1.47,8.35-.85-6,4.44-5.96,4.65.16,8.81,1.84,1.25,1.6,2.89-.39,3.76-2.17.95-4.24,1.12-6.5-.59-2.71-2.05-5.97-1.24-8.28.78-2.88,2.51-4.13,6.03-3.12,9.92.8,3.07,3.06,3.88,6.09,3.96,4.44.12,5.12,3.51,4.74,6.91-.41,3.65.77,6.51,3.99,7.66,2.97,1.06,4.85-1.32,7.02-3.41,3.89-3.76,3.04-9.57,6.77-13.35,1.61-1.63,1.45-4.12-2.08-4.22-1.49-.04-1.73-1.37-1.89-2.53-.16-1.21.56-2.1,1.69-1.93,5.03.75,6.96-2.97,9.27-6.19Z"/>
  <path class="cls-2" d="m244.68,32.67c-2.32,3.22-4.25,6.94-9.27,6.19-1.13-.17-1.85.71-1.69,1.93.15,1.16.4,2.49,1.89,2.53,3.53.1,3.69,2.59,2.08,4.22-3.73,3.78-2.88,9.59-6.77,13.35-2.16,2.09-4.05,4.47-7.02,3.41-3.22-1.15-4.39-4.01-3.99-7.66.38-3.39-.3-6.79-4.74-6.91-3.03-.08-5.3-.89-6.09-3.96-1.01-3.9.24-7.41,3.12-9.92,2.32-2.02,5.58-2.83,8.28-.78,2.26,1.71,4.33,1.54,6.5.59,1.99-.87,2.23-2.51.39-3.76-6.12-4.16-6.17-4.37-.16-8.81,7.37.38,13.3,3.38,17.47,9.59Z"/>
  <path class="cls-4" d="m357.59,137.09c1.44.22,4.12,6.7,3.3,7.66-.36.42-1.15.73-1.7.67-.92-.1-3.57-6.61-3.01-7.38.34-.47,1.03-.7,1.41-.94Z"/>
  <path class="cls-2" d="m133.24,328.71c-.33,0-.67,0-1,0-6.81,0-9.9-4.93-7.05-11.2.37-.8.82-1.62,1.69-1.64,4.32-.07,8.64-.14,12.95.03,1.54.06,1.91,1.49,2.13,2.93,1.32,8.78.37,9.88-8.73,9.88Z"/>
  <path class="cls-1" d="m144.1,307.61c4.97,0,9.94-.04,14.9.03,1.51.02,3.64-.58,3.58,2.11-.05,2.27-1.86,1.94-3.28,1.95-10.43.03-20.87.03-31.3,0-1.41,0-3.25.35-3.34-1.89-.11-2.67,2-2.15,3.54-2.17,5.3-.06,10.6-.02,15.9-.02Z"/>
  <path class="cls-1" d="m182.27,311.7c-3.31,0-6.63,0-9.94,0-1.51,0-2.6-.38-2.5-2.23.08-1.59,1.1-1.84,2.37-1.84,6.96,0,13.91,0,20.87,0,1.49,0,2.65.35,2.53,2.2-.13,1.91-1.55,1.86-2.89,1.87-3.48.02-6.96,0-10.43,0Z"/>
  <path class="cls-1" d="m141.69,64.88c-.9,1.89-1.81,3.77-2.74,5.72,7.49.54,9.53,2.27,9.03,7.51-.3,3.15-1.7,5.47-5.18,5.42-3.4-.04-4.97-2.23-5.12-5.46-.07-1.47.1-2.96.17-4.44.03-.24.1-.69.07-.7-.76-.19-1.12.22-1.25.92-1.21,2.35-2.45,4.68-3.61,7.05-1.06,2.17-2.68,2.7-5.38,1.81,1.72-2.95,3.36-5.75,5-8.54-.02-.46-.04-.92-.07-1.38l-.1.04c2.49-1.63,3.03-4.54,4.45-6.87,1.15-1.88,2.3-3.2,4.69-2.38.01.43.03.87.04,1.3Z"/>
  <path class="cls-1" d="m130.73,74.4c-6.95.69-8.68-.67-8.22-6.35.25-3.12,1.8-4.95,4.95-5.06,2.94-.1,4.62,1.73,5.09,4.42.31,1.75,0,3.61-.02,5.42,0,0,.1-.04.1-.04-1.02.08-1.48.82-1.89,1.61Z"/>
  <path class="cls-4" d="m130.73,74.4c.41-.79.87-1.53,1.89-1.61.02.46.04.92.07,1.38-.65.08-1.3.15-1.96.23Z"/>
  <path class="cls-4" d="m136.68,73.85c.13-.7.49-1.1,1.25-.92.03,0-.05.46-.07.7-.39.07-.78.14-1.18.21Z"/>
  <path class="cls-4" d="m141.69,64.88c-.01-.43-.02-.86-.04-1.3,1.25.4.61.85.04,1.3Z"/>
  <path class="cls-4" d="m88.75,33.8c-.35-2.07-.59-4.17-1.1-6.2-.43-1.7.02-2.75,1.48-3.68,1.38-.88,2.34-.36,3.55.36,2.39,1.41,3.72,4.47,6.99,4.46,0,0-.09-.1-.09-.1-.45,1.06.96,3.23-.84,3.16-3.43-.14-4.67,1.39-6.53,4.11-2.12,3.09-1.98-1.9-3.55-2.21l.09.09Z"/>
  <path class="cls-4" d="m88.66,33.71c-.11,1.91.84,4.01-1.08,5.59-1.27,1.05-2.48,2.34-4.31,2-.5-.09-1.19-.89-1.22-1.4-.12-1.99,2.64-1.01,2.99-2.95-.84-.9-2-.22-3-.25-2.41-.07-3.96-1.39-3.82-3.66.16-2.64,2.28-3.9,4.7-4.49.72-.17,1.34.2,1.57.89.72,2.15-2.07,1.72-2.49,3.44,2.38-.1,4.63.09,6.76.92,0,0-.09-.09-.09-.09Z"/>
  <path class="cls-4" d="m107.77,24.89c.55-3.36-2.65-4.84-3.73-7.39-.49-1.16-1.78-2.3,0-3.3,1.52-.86,2.86-3.17,4.57-2.32,3.12,1.55-1.15,2.55-.74,4.1,1.2.75,2.39-1.5,3.54-.02,1.42,1.83-1.51,2.23-1.25,3.69,1.32,1.22,3.45-1.92,4.2.51.72,2.35-2.22,2.35-3.26,3.65-.94,1.18-2.42.17-3.42.97l.09.11Z"/>
  <path class="cls-4" d="m107.68,24.77c-1.97,2.82-3.79,5.94-8.1,3.88,0,0,.09.1.09.1-.43-2.73-2.6-4.46-3.88-6.71-.7-1.23-.67-2.08.62-2.83,1.2-.7,1.78.02,2.36.87.46.68.95,1.34,1.38,2.04,1.3,2.11,2.4,4.6,5.5,2,.29-.24,1.39.49,2.11.77,0,0-.09-.11-.09-.11Z"/>
  <path class="cls-1" d="m116.58,294.37c-7.13.1-14.26.18-21.4.31-1.71.03-3.01-.43-3.08-2.37-.08-2.36,1.56-2.56,3.37-2.54,6.97.06,13.95.08,20.92.12.02.33.13.63.34.89-.06,1.2-.11,2.39-.17,3.59Z"/>
  <path class="cls-2" d="m314.54,101.62c2.25-4.59,5.05-3.05,7.93-.72.79,3.18.22,5.97-3.46,6.29-3.67.32-4.78-2.26-4.47-5.57Z"/>
  <path class="cls-4" d="m344.7,92.45c.15,2.22-1.34,2.21-2.93,2.27-2.22.08-2.23-1.32-2.28-2.92-.05-1.65.52-2.43,2.26-2.4,2.07.04,3.03,1,2.95,3.04Z"/>
  <path class="cls-2" d="m226.11,137.74c13.82,0,27.65.11,41.47-.07,3.73-.05,5.24.71,5.16,4.89-.27,14.65-.18,29.31-.05,43.96.03,3.16-.79,4.37-4.17,4.36-28.31-.12-56.62-.12-84.94,0-3.42.01-4.17-1.3-4.15-4.41.12-14.82.17-29.65-.03-44.47-.05-3.77,1.5-4.35,4.73-4.32,13.99.13,27.98.06,41.97.06Z"/>
  <path class="cls-2" d="m138.39,226.74c-17.64-3.13-26.64-12.39-29.09-29.93.04-1.37.09-2.75.13-4.12l.07-1.03c.03-.65.05-1.3.08-1.95.7-2.34,1.4-4.68,2.1-7.02.36-.64.71-1.28,1.07-1.92,2.33-3.02,4.66-6.03,6.98-9.05.95-.72,1.91-1.44,2.86-2.16,12.04-7.44,24.08-7.59,36.14-.05.97.73,1.94,1.45,2.91,2.18,2.33,3,4.65,6.01,6.98,9.01.36.65.73,1.3,1.09,1.96.69,2.35,1.39,4.7,2.08,7.06.03,4.66.41,9.34-.75,13.94-.92,2.05.93,2.2,1.98,2.67,4.85,2.15,9.75,4.2,14.64,6.28,1.87.76,3.74,1.53,5.62,2.29,6.47,2.89,12.93,5.77,19.4,8.66,2.65,1.04,5.3,2.08,7.94,3.12,3.08,2.84,7.79,2.8,10.65,6.04.23.96.47,1.92.7,2.88-.02,2.89-.57,5.65-2.17,8.12-.7.7-1.39,1.41-2.09,2.11-3.06,2.16-6.12,2.18-9.19.03-1.28-.74-2.57-1.48-3.85-2.22-4.99-3.02-9.97-6.05-14.96-9.07-1.26-.7-2.52-1.39-3.78-2.09-3.79-3.08-8.11-5.3-12.36-7.65-2.21-.59-3.37-3.04-5.79-3.27-.89-.7-1.73-1.48-2.69-2.07q-8.83-5.42-16.5,2c-2.29,1.1-4.58,2.2-6.87,3.3-.69.3-1.38.6-2.07.9-3.75.35-7.5.7-11.25,1.05Zm15.35-14.02c3.5-2.09,5.83-5.08,6.99-8.99,3.87-9.48,1.67-18.5-6.11-25.06-8-7.22-19.38-7.2-27.88.03-9.25,7.87-10.59,20.71-3.16,30.21,7.25,9.26,20.16,10.9,30.16,3.82Z"/>
  <path class="cls-5" d="m218.51,245.85c3.07,2.14,6.14,2.12,9.19-.03,1.57,1.44,3.5.78,5.26.79,11.83.06,23.66.09,35.48-.01,2.82-.02,4.24.56,4.26,3.82.02,3.32-1.15,4.25-4.36,4.24-38.15-.09-76.3-.09-114.45,0-3.19,0-4.35-.88-4.39-4.22-.05-3.8,2.01-3.83,4.76-3.83,19.66.05,39.31.04,58.97,0,1.76,0,3.69.63,5.28-.76Z"/>
  <path class="cls-5" d="m173.73,264.65c-.57-3.23-2.61-4.2-5.71-4.19-6.46.04-12.93-.17-19.4-.28,0-2.91,1.76-3.52,4.28-3.52,38.61.03,77.21.05,115.82-.03,3.14,0,3.87,1.19,3.97,4.11.13,3.66-1.73,3.96-4.62,3.95-31.45-.06-62.9-.04-94.35-.04Z"/>
  <path class="cls-5" d="m187.66,212.6c-4.88-2.08-9.79-4.13-14.64-6.28-1.05-.47-2.9-.62-1.98-2.67,32.15.01,64.3,0,96.45.08,2.04,0,4.89-1.17,5.16,2.78.26,3.7-.62,5.27-4.85,5.24-24.99-.2-49.97-.11-74.96-.07-1.74,0-3.7-.72-5.18.92Z"/>
  <path class="cls-5" d="m158.73,169.51c-12.06-7.54-24.1-7.4-36.14.05-1.54-1.51-3.47-.84-5.22-.85-15.62-.05-31.23-.01-46.85-.05-2.8,0-6.03,1.08-6.01-4.02.02-5.21,3.42-3.69,6.12-3.92.66-.06,1.33,0,1.99,0,.32,1.14-.62,3.03.92,3.35,2.54.53,1.54-2.7,3.03-3.49,30.64.04,61.27.08,91.91.16,1.91,0,4.21-.78,5.54,1.26,1.04,1.6.82,3.59.31,5.33-.58,1.96-2.47,1.17-3.86,1.34-3.9.47-7.94-.96-11.75.84Z"/>
  <path class="cls-5" d="m73.68,157.7c-1.83,0-3.67-.07-5.49.05-2.5.16-3.57-.75-3.61-3.41-.04-2.88,1.1-3.71,3.84-3.7,33.8.06,67.6.06,101.4,0,2.67,0,3.92.68,3.92,3.63,0,3.08-1.52,3.5-4.06,3.49-30.97-.08-61.94-.1-92.91-.14-.25-.95-.62-1.81-1.83-1.65-.95.13-1.08.98-1.27,1.73Z"/>
  <path class="cls-5" d="m81.58,140.79c1.26-1.59,3.04-1.06,4.64-1.06,27.59-.03,55.18.01,82.76-.07,3.28,0,5.75.51,5.52,4.42-.22,3.79-3.04,3.61-5.82,3.61-28.75-.03-57.5-.02-86.26-.01-.66,0-1.33.02-1.99.03-.1-2.39,1.77-4.45,1.14-6.92Z"/>
  <path class="cls-5" d="m212.67,223.55c-6.47-2.89-12.93-5.77-19.4-8.66,25.27-.07,50.54-.11,75.8-.26,3.01-.02,3.54,1.34,3.6,3.94.06,2.92-.78,4.14-3.93,4.12-16.96-.12-33.92-.08-50.88-.02-1.74,0-3.69-.71-5.19.89Z"/>
  <path class="cls-5" d="m199.7,234.56c4.99,3.02,9.97,6.05,14.96,9.07-20.1,0-40.19-.03-60.29.06-3.1.01-4.92-.34-4.88-4.21.04-3.77,2-3.83,4.75-3.82,13.45.06,26.91.05,40.36,0,1.73,0,3.71.72,5.09-1.09Z"/>
  <path class="cls-5" d="m119.73,171.72c-2.33,3.02-4.66,6.03-6.98,9.05-1.39-1.78-3.37-1.08-5.1-1.09-11.62-.06-23.25-.04-34.87-.05-.64-2.68,1.38-5.19.49-7.88,15.49,0,30.98-.02,46.47-.03Z"/>
  <path class="cls-5" d="m229.8,243.71c1.6-2.47,2.15-5.23,2.17-8.12,11.94.03,23.87.12,35.81.06,2.99-.02,4.95.15,4.96,4.11,0,4.19-2.35,3.92-5.14,3.91-12.6-.02-25.2.02-37.8.04Z"/>
  <path class="cls-5" d="m231.26,232.7c-2.86-3.23-7.57-3.2-10.65-6.04,1.09-1.49,2.71-1.02,4.14-1.03,14.48-.03,28.96,0,43.44-.04,2.54,0,4.5,0,4.5,3.54,0,3.52-1.93,3.57-4.48,3.56-12.32-.05-24.63,0-36.95,0Z"/>
  <path class="cls-5" d="m111.68,182.69c-.7,2.34-1.4,4.68-2.1,7.02-12.61-.03-25.21-.06-37.82-.09-1.05-1.35-2.08-1.31-3.08.06-2.93.4-4.17-.66-4.11-3.82.06-3.3,2-3.23,4.29-3.22,14.27.04,28.55.04,42.82.06Z"/>
  <path class="cls-5" d="m183.56,224.83c4.25,2.35,8.57,4.57,12.36,7.65-14.13.07-28.26.04-42.38.25-6.11.09-3.26-4.34-3.9-7.03.69-.3,1.38-.6,2.07-.9,2.76,1.76,5.83.85,8.7.75,7.71-.26,15.48,1.1,23.15-.72Z"/>
  <path class="cls-5" d="m76.63,147.67c-2.49,0-4.99-.11-7.47.03-2.89.17-4.65-.29-4.63-3.93.02-3.44,1.4-4.47,4.47-4.05,3.54.49,7.26-1.11,10.66.96-1.01,2.33-2.02,4.66-3.02,6.99Z"/>
  <path class="cls-5" d="m168.61,180.7c-2.33-3-4.65-6.01-6.98-9.01,2.62,0,5.26-.15,7.87.02,2.01.13,4.88-1.18,5.11,2.7.19,3.26-.43,5.56-4.4,5.35-.51-.03-1.07.61-1.6.95Z"/>
  <path class="cls-5" d="m69.56,179.62c-3.32.45-5.15-.28-5.03-4.36.16-5.29,3.84-3.11,6.33-3.56-.44,2.64-.87,5.28-1.31,7.92Z"/>
  <path class="cls-1" d="m73.68,157.7c.19-.75.32-1.6,1.27-1.73,1.2-.17,1.58.69,1.83,1.65-.07.99-.14,1.98-.21,2.97-1.49.79-.48,4.02-3.03,3.49-1.54-.32-.6-2.21-.92-3.35.35-1.01.7-2.02,1.06-3.03Z"/>
  <path class="cls-5" d="m171.78,189.71c-.69-2.35-1.39-4.7-2.08-7.06,1.89.31,4.75-1.13,4.84,2.49.05,2.02.83,4.67-2.76,4.56Z"/>
  <path class="cls-1" d="m69.56,179.62c.44-2.64.87-5.28,1.31-7.92.8.02,1.6.03,2.4.05.88,2.69-1.14,5.2-.49,7.88-1.07,1.33-2.14,1.26-3.21,0Z"/>
  <path class="cls-1" d="m76.63,147.67c1.01-2.33,2.02-4.66,3.02-6.99.64.04,1.28.07,1.92.11.63,2.47-1.24,4.54-1.14,6.92-1.27.7-2.55,1.65-3.8-.04Z"/>
  <path class="cls-1" d="m68.68,189.67c1-1.37,2.03-1.41,3.08-.06-.04,2.37-.08,4.74-.11,7.11-.98,0-1.96,0-2.94,0,0-2.35-.01-4.7-.02-7.06Z"/>
  <path class="cls-1" d="m96.16,116.55c1.87,0,3.69,0,5.52,0,52.62,0,105.23,0,157.85,0,1.17,0,2.33.05,3.5,0,3.08-.14,5.45.84,5.37,4.31-.07,3.12-2.22,4.21-5.15,4.03-.66-.04-1.33-.01-2-.01-54.45,0-108.9,0-163.34-.02-2.85,0-6.49,1-7.34-3.19-.83-4.08,2.39-6.69,4.32-9.71.35-.55,1.19-.49,1.73.06,1.57,1.6-1.09,2.55-.45,4.55Z"/>
  <path class="cls-6" d="m75.61,120.48c-.08,1.77-1.06,2.62-2.5,2.58-1.45-.04-2.41-.95-2.31-2.55.08-1.36,1.01-2.09,2.23-2.14,1.46-.07,2.42.74,2.59,2.11Z"/>
  <path class="cls-3" d="m64.74,122.61c-1.61-.09-2.61-.61-2.58-1.98.02-1.08.84-1.73,1.91-1.76,1.29-.04,2.24.61,2.24,1.94,0,1.07-.93,1.55-1.57,1.81Z"/>
  <path class="cls-6" d="m83.48,120.57c0,1.13-.49,1.86-1.68,1.92-1.13.05-1.86-.48-1.92-1.66-.05-1.13.48-1.85,1.66-1.92,1.14-.06,1.83.47,1.93,1.66Z"/>
  <path class="cls-4" d="m274.32,121.92c1,1.34,2.68.77,4.99,1.4-2.86,1.94-4.48,1.64-5.94-.41.32-.33.63-.66.95-.99Z"/>
  <path class="cls-4" d="m273.37,118.5c1.09-1.72,2.49-2.31,4.44-1.29-.13,2.44-2.9.74-3.5,2.32-.31-.34-.62-.69-.93-1.03Z"/>
  <path class="cls-4" d="m274.3,119.53c0,.8,0,1.59.02,2.39-.32.33-.63.66-.95.99-1.33-1.47-1.33-2.94,0-4.41.31.34.62.69.93,1.03Z"/>
  <path class="cls-6" d="m98.92,225.38c4.25-4.25,11.64-3.75,15.31.12,3.54,3.73,3.93,9.59.9,13.7-3.76,5.1-9.55,5.56-16.26,1.28-3.54-5.05-3.51-10.08.05-15.11Z"/>
  <path class="cls-5" d="m98.92,225.38c-3.56,5.02-3.6,10.06-.05,15.11-5.32,3.79-9.97,3.99-14,.62-3.53-2.95-4.84-7.99-3.15-12.1,1.84-4.47,6.31-7.11,11.1-6.57,2.38.27,4.41,1.25,6.1,2.94Z"/>
  <path class="cls-4" d="m71.64,196.72c.04-2.37.07-4.74.11-7.11,12.61.03,25.21.06,37.82.09-.03.65-.05,1.3-.08,1.95-.12.1-.34.21-.33.28.04.26.17.5.26.75-.04,1.37-.09,2.75-.13,4.12-12.55-.03-25.1-.06-37.65-.09Z"/>
  <path class="cls-4" d="m154.61,178.66c7.78,6.56,9.98,15.58,6.11,25.06-2.13,0-4.25-.04-6.38-.02-4.35.05-5.61,1.94-4.68,6.1.56,2.5,3.3,1.18,4.07,2.91-10,7.08-22.91,5.45-30.16-3.82-7.43-9.5-6.09-22.34,3.16-30.21,9.29,1.55,18.59,1.6,27.88-.03Z"/>
  <path class="cls-5" d="m154.61,178.66c-9.29,1.63-18.58,1.58-27.88.03,8.49-7.23,19.87-7.24,27.88-.03Z"/>
  <path class="cls-5" d="m158.58,221.49q7.67-7.41,16.5-2c.96.59,1.8,1.38,2.69,2.07-6.4,1.61-12.8,1.94-19.19-.07Z"/>
  <path class="cls-4" d="m158.58,221.49c6.39,2.02,12.79,1.68,19.19.07,2.41.23,3.58,2.67,5.79,3.27-7.66,1.82-15.43.46-23.15.72-2.87.1-5.94,1.01-8.7-.75,2.29-1.1,4.58-2.2,6.87-3.3Z"/>
  <path class="cls-5" d="m153.73,212.72c-.78-1.74-3.51-.42-4.07-2.91-.93-4.15.32-6.05,4.68-6.1,2.13-.02,4.25,0,6.38.02-1.15,3.91-3.48,6.91-6.99,8.99Z"/>
  <path class="cls-5" d="m109.43,192.69c-.09-.25-.22-.49-.26-.75-.01-.07.21-.19.33-.28-.02.34-.05.69-.07,1.03Z"/>
</svg>