<?xml version="1.0" encoding="UTF-8"?>
<svg version="1.1" viewBox="0 0 2000 2000" width="1280" height="1280" xmlns="http://www.w3.org/2000/svg">
<path transform="translate(1562,196)" d="m0 0 73 1 18 3 22 6 24 10 16 9 17 12 14 12 12 12 11 14 12 18 8 15 9 23 6 23 3 23v1250l-3 22-5 20-8 22-13 25-11 15-9 11-5 6h-2l-2 4-10 9-17 13-15 9-16 8-19 7-18 5-26 4h-1255l-25-4-21-6-21-9-17-9-17-12-10-9-8-7-8-8-9-11-10-14-10-17-7-15-8-24-4-19-2-15-1-22v-1214l2-25 5-25 6-19 8-18 9-17 8-11 9-12 12-13 13-12 18-13 19-11 21-9 25-7 18-3zm-979 272-17 3-16 5-16 8-11 7-10 8-10 9-11 14-8 12-8 17-5 17-3 18v26l4 21 6 17 10 19 12 16 14 14 17 12 21 10 12 4 22 4h24l20-4 18-6 19-10 12-9 10-9 7-7 10-14 8-14 8-20 4-19 1-9v-17l-3-20-1-5-1-4h-2l1-4-8-20-11-18-12-13-10-10-14-10-17-9-17-6-13-3-10-1zm673 335-25 3-20 4-23 7-23 10-17 9-22 15-16 13-13 12-13 14-11 14-10 15-2 1v-95h-210v711h207l2-1 1-383 3-29 5-25 7-21 8-16 7-11 7-9v-2h2l4-4v-2l4-2 9-7 13-8 14-6 13-4 17-3 10-1h23l21 3 17 5 19 10 11 9 7 7 9 12 6 10 9 22 6 24 3 20 2 26 1 386h214l3-1v-477l-3-31-4-24-6-25-9-27-9-20-9-17-7-11-12-16-9-10-18-18-13-10-15-10-20-11-19-8-21-7-26-6-22-3-12-1zm-550 21-217 1v710l1 1h214l3-1v-711z"/>
</svg>
