<?xml version="1.0" encoding="UTF-8"?>
<svg version="1.1" viewBox="0 0 1200 1200" width="1280" height="1280" xmlns="http://www.w3.org/2000/svg">
<path transform="translate(409)" d="m0 0h78l39 3 28 4 26 6 24 8 23 11 15 10 10 8 12 11 10 11 11 15 12 20 13 27 10 26 10 32 4 15v5l-10 9-11 9-6 5-5-2-11-5-8-2h-20l-13 4-17 9-24 14-26 15-18 11-8 8-8 13-4 13-1 6v11l3 14 8 16 1 5-2 9v15l4 15 11 20 14 24 60 104-1 4-12 11-8 7-13 13-7 8-12 14-15 20-10 15-12 20-14 27-13 32-9 28-7 30-5 33-2 26v37l2 25 4 28 7 31 8 26 11 28 13 27v3l-17 1-14 4-12 7-7 6-9 13-5 12-2 13v99h-286l1-19 5-37 5-23 7-19 12-25 12-20 8-12 16-23 28-38 12-17 13-20 10-14 3-7 12-55 4-20 23-6 2-24-1-30-4-27-7-21-8-15-7-9-11-9-14-8-15-5-18-3h-44l-27 2h-38l-13-4-10-6-11-11-5-11-1-4v-14l6-28-1-15-4-11-3-5-11-7-3-3v-11l4-6 7-5-4-5-10-7-4-4v-7l14-31 1-7-4-4-14-6-23-8-8-5-4-4v-9l14-23 29-43 8-12 16-23 8-16 2-8v-8l-4-13-7-14 1-10 8-16 9-17 2-11 5-30 6-25 6-20 8-21 10-20 10-14 2-3v-8l-3-11v-13l3-6 11-12 12-10 19-11 21-10 36-12 32-8 34-6z" fill="#323848"/>
<path transform="translate(672,283)" d="m0 0h2l14 25 12 21 14-8 5-1 10 17 105 182 14 24 16 28 14 24 16 28 14 24 75 130 4 7-1 3-21 12 6 11 10 18 14 24 2 5-9 6-23 13-24 14-4 1-8-13-15-26-10-17-22 12-3-1-10-18-14-24-16-28-14-24-45-78-12-21-9 5-13 10-15 13-12 12-9 11-10 13-11 17-12 23-9 23-7 25-4 24-1 10v38l3 24 6 25 7 21 8 18 10 19 10 15 10 13 12 14 14 14 11 9 12 9 17 11 23 12 23 9 25 7 24 4 11 1 216 1v94h-558v-94l125-1-18-18-9-11-12-15-16-24-12-21-11-23-9-24-7-23-5-22-4-27-1-12v-48l3-27 5-26 8-29 11-29 11-23 11-19 12-18 12-16 11-13 11-12 15-15 11-9 13-11 16-11 8-5-1-4-14-25-10-17-45-78-14-24-16-28-7-12v-3l14-8h2l-6-11-14-25-6-10 1-3 52-30z" fill="#343A4A"/>
<path transform="translate(1102,859)" d="m0 0 3 1 15 26 6 10-1 4-130 75-24 14-28 16-24 14-19 11-3-3-15-26-6-11 13-8 28-16 78-45 24-14 28-16 24-14 26-15z" fill="#383E4D"/>
</svg>
